# This file was created with Minddesk Qubicle 3.0
# Get Qubicle at www.getqubicle.com

mtllib head_human.mtl

vn 0.0 0.0 1.0
vn 0.0 0.0 -1.0
vn -1.0 0.0 0.0
vn 1.0 0.0 0.0
vn 0.0 1.0 0.0
vn 0.0 -1.0 0.0

v 8.00000 49.00000 10.00000
v 8.00000 29.00000 10.00000
v -8.00000 29.00000 10.00000
v -8.00000 49.00000 10.00000
v -8.00000 50.00000 -10.00000
v -8.00000 29.00000 -10.00000
v -9.00000 29.00000 -10.00000
v -9.00000 50.00000 -10.00000
v 9.00000 50.00000 -10.00000
v 9.00000 29.00000 -10.00000
v 8.00000 29.00000 -10.00000
v 8.00000 50.00000 -10.00000
v 8.00000 36.00000 -11.00000
v 8.00000 29.00000 -11.00000
v -8.00000 29.00000 -11.00000
v -8.00000 36.00000 -11.00000
v 7.00000 56.00000 -9.00000
v 7.00000 50.00000 -9.00000
v -7.00000 50.00000 -9.00000
v -7.00000 56.00000 -9.00000
v 6.00000 55.00000 8.00000
v 6.00000 50.00000 8.00000
v -6.00000 50.00000 8.00000
v -6.00000 55.00000 8.00000
v 0.00000 44.00000 -11.00000
v 0.00000 38.00000 -11.00000
v -8.00000 38.00000 -11.00000
v -8.00000 44.00000 -11.00000
v 8.00000 45.00000 -11.00000
v 8.00000 37.00000 -11.00000
v 1.00000 37.00000 -11.00000
v 1.00000 45.00000 -11.00000
v 2.00000 28.00000 -4.00000
v 2.00000 20.00000 -4.00000
v -2.00000 20.00000 -4.00000
v -2.00000 28.00000 -4.00000
v 2.00000 28.00000 3.00000
v 2.00000 21.00000 3.00000
v -2.00000 21.00000 3.00000
v -2.00000 28.00000 3.00000
v 1.00000 44.00000 -12.00000
v 1.00000 38.00000 -12.00000
v 0.00000 38.00000 -12.00000
v 0.00000 44.00000 -12.00000
v -2.00000 28.00000 -3.00000
v -2.00000 20.00000 -3.00000
v -3.00000 20.00000 -3.00000
v -3.00000 28.00000 -3.00000
v 3.00000 28.00000 -3.00000
v 3.00000 20.00000 -3.00000
v 2.00000 20.00000 -3.00000
v 2.00000 28.00000 -3.00000
v -3.00000 28.00000 -2.00000
v -3.00000 20.00000 -2.00000
v -4.00000 20.00000 -2.00000
v -4.00000 28.00000 -2.00000
v 4.00000 28.00000 -2.00000
v 4.00000 20.00000 -2.00000
v 3.00000 20.00000 -2.00000
v 3.00000 28.00000 -2.00000
v -2.00000 28.00000 2.00000
v -2.00000 21.00000 2.00000
v -3.00000 21.00000 2.00000
v -3.00000 28.00000 2.00000
v 3.00000 28.00000 2.00000
v 3.00000 21.00000 2.00000
v 2.00000 21.00000 2.00000
v 2.00000 28.00000 2.00000
v 8.00000 50.00000 -11.00000
v 8.00000 46.00000 -11.00000
v -8.00000 46.00000 -11.00000
v -8.00000 50.00000 -11.00000
v -9.00000 44.00000 -1.00000
v -9.00000 41.00000 -1.00000
v -10.00000 41.00000 -1.00000
v -10.00000 44.00000 -1.00000
v -8.00000 44.00000 1.00000
v -8.00000 41.00000 1.00000
v -9.00000 41.00000 1.00000
v -9.00000 44.00000 1.00000
v -8.00000 41.00000 2.00000
v -8.00000 38.00000 2.00000
v -9.00000 38.00000 2.00000
v -9.00000 41.00000 2.00000
v -9.00000 40.00000 -2.00000
v -9.00000 38.00000 -2.00000
v -11.00000 38.00000 -2.00000
v -11.00000 40.00000 -2.00000
v 8.00000 28.00000 -10.00000
v -8.00000 28.00000 -10.00000
v 7.00000 50.00000 9.00000
v 7.00000 49.00000 9.00000
v -7.00000 49.00000 9.00000
v -7.00000 50.00000 9.00000
v -2.00000 37.00000 -11.00000
v -2.00000 36.00000 -11.00000
v -8.00000 37.00000 -11.00000
v -1.00000 38.00000 -11.00000
v -1.00000 37.00000 -11.00000
v -1.00000 45.00000 -11.00000
v -1.00000 44.00000 -11.00000
v -8.00000 45.00000 -11.00000
v -2.00000 46.00000 -11.00000
v -2.00000 45.00000 -11.00000
v 0.00000 36.00000 -11.00000
v 0.00000 37.00000 -11.00000
v 0.00000 45.00000 -11.00000
v 0.00000 46.00000 -11.00000
v 2.00000 29.00000 4.00000
v 2.00000 28.00000 4.00000
v -2.00000 28.00000 4.00000
v -2.00000 29.00000 4.00000
v 0.00000 37.00000 -12.00000
v 0.00000 36.00000 -12.00000
v -2.00000 36.00000 -12.00000
v -2.00000 37.00000 -12.00000
v 0.00000 46.00000 -12.00000
v 0.00000 45.00000 -12.00000
v -2.00000 45.00000 -12.00000
v -2.00000 46.00000 -12.00000
v 1.00000 37.00000 -12.00000
v -1.00000 37.00000 -12.00000
v -1.00000 38.00000 -12.00000
v 1.00000 45.00000 -12.00000
v -1.00000 44.00000 -12.00000
v -1.00000 45.00000 -12.00000
v 3.00000 30.00000 -5.00000
v 3.00000 29.00000 -5.00000
v 2.00000 29.00000 -5.00000
v 2.00000 30.00000 -5.00000
v -9.00000 41.00000 -2.00000
v -10.00000 40.00000 -2.00000
v -10.00000 41.00000 -2.00000
v -10.00000 40.00000 -1.00000
v -11.00000 40.00000 -1.00000
v -11.00000 41.00000 -1.00000
v -3.00000 29.00000 2.00000
v -4.00000 28.00000 2.00000
v -4.00000 29.00000 2.00000
v 4.00000 29.00000 2.00000
v 4.00000 28.00000 2.00000
v 3.00000 29.00000 2.00000
v -2.00000 29.00000 3.00000
v -3.00000 28.00000 3.00000
v -3.00000 29.00000 3.00000
v 3.00000 29.00000 3.00000
v 3.00000 28.00000 3.00000
v 2.00000 29.00000 3.00000
v -8.00000 49.00000 -10.00000
v 8.00000 49.00000 -10.00000
v -9.00000 50.00000 10.00000
v -9.00000 29.00000 10.00000
v -8.00000 50.00000 10.00000
v 8.00000 50.00000 10.00000
v 9.00000 29.00000 10.00000
v 9.00000 50.00000 10.00000
v -6.00000 55.00000 -8.00000
v -6.00000 50.00000 -8.00000
v 6.00000 50.00000 -8.00000
v 6.00000 55.00000 -8.00000
v -7.00000 56.00000 9.00000
v 7.00000 56.00000 9.00000
v -8.00000 36.00000 11.00000
v -8.00000 29.00000 11.00000
v 8.00000 29.00000 11.00000
v 8.00000 36.00000 11.00000
v -8.00000 44.00000 11.00000
v -8.00000 38.00000 11.00000
v 0.00000 38.00000 11.00000
v 0.00000 44.00000 11.00000
v 1.00000 45.00000 11.00000
v 1.00000 37.00000 11.00000
v 8.00000 37.00000 11.00000
v 8.00000 45.00000 11.00000
v -2.00000 21.00000 -3.00000
v 2.00000 21.00000 -3.00000
v -2.00000 20.00000 4.00000
v 2.00000 20.00000 4.00000
v -3.00000 21.00000 -2.00000
v -2.00000 21.00000 -2.00000
v -2.00000 28.00000 -2.00000
v 2.00000 28.00000 -2.00000
v 2.00000 21.00000 -2.00000
v 3.00000 21.00000 -2.00000
v -4.00000 20.00000 2.00000
v -3.00000 20.00000 2.00000
v 3.00000 20.00000 2.00000
v 4.00000 20.00000 2.00000
v -3.00000 20.00000 3.00000
v -2.00000 20.00000 3.00000
v 2.00000 20.00000 3.00000
v 3.00000 20.00000 3.00000
v 0.00000 44.00000 12.00000
v 0.00000 38.00000 12.00000
v 1.00000 38.00000 12.00000
v 1.00000 44.00000 12.00000
v -8.00000 50.00000 11.00000
v -8.00000 46.00000 11.00000
v 8.00000 46.00000 11.00000
v 8.00000 50.00000 11.00000
v -8.00000 38.00000 -2.00000
v -8.00000 41.00000 -2.00000
v -8.00000 41.00000 -1.00000
v -8.00000 44.00000 -1.00000
v -10.00000 44.00000 1.00000
v -10.00000 41.00000 1.00000
v -11.00000 40.00000 2.00000
v -11.00000 38.00000 2.00000
v -9.00000 40.00000 2.00000
v -7.00000 49.00000 -9.00000
v 7.00000 49.00000 -9.00000
v -8.00000 28.00000 10.00000
v 8.00000 28.00000 10.00000
v -8.00000 37.00000 11.00000
v -2.00000 36.00000 11.00000
v -2.00000 37.00000 11.00000
v -1.00000 37.00000 11.00000
v -1.00000 38.00000 11.00000
v -8.00000 45.00000 11.00000
v -1.00000 44.00000 11.00000
v -1.00000 45.00000 11.00000
v -2.00000 45.00000 11.00000
v -2.00000 46.00000 11.00000
v 0.00000 37.00000 11.00000
v 0.00000 36.00000 11.00000
v 0.00000 46.00000 11.00000
v 0.00000 45.00000 11.00000
v -2.00000 29.00000 -4.00000
v 2.00000 29.00000 -4.00000
v -2.00000 37.00000 12.00000
v -2.00000 36.00000 12.00000
v 0.00000 36.00000 12.00000
v 0.00000 37.00000 12.00000
v -2.00000 46.00000 12.00000
v -2.00000 45.00000 12.00000
v 0.00000 45.00000 12.00000
v 0.00000 46.00000 12.00000
v -1.00000 38.00000 12.00000
v -1.00000 37.00000 12.00000
v 1.00000 37.00000 12.00000
v -1.00000 45.00000 12.00000
v -1.00000 44.00000 12.00000
v 1.00000 45.00000 12.00000
v 2.00000 30.00000 -4.00000
v 3.00000 29.00000 -4.00000
v 3.00000 30.00000 -4.00000
v -3.00000 29.00000 -3.00000
v -2.00000 29.00000 -3.00000
v 2.00000 29.00000 -3.00000
v 3.00000 29.00000 -3.00000
v -4.00000 29.00000 -2.00000
v -3.00000 29.00000 -2.00000
v 3.00000 29.00000 -2.00000
v 4.00000 29.00000 -2.00000
v -11.00000 41.00000 1.00000
v -11.00000 40.00000 1.00000
v -10.00000 40.00000 1.00000
v -10.00000 41.00000 2.00000
v -10.00000 40.00000 2.00000
v -9.00000 38.00000 -10.00000
v -9.00000 38.00000 10.00000
v -9.00000 44.00000 -10.00000
v -9.00000 44.00000 10.00000
v -9.00000 41.00000 -10.00000
v -9.00000 41.00000 10.00000
v -8.00000 38.00000 10.00000
v -8.00000 38.00000 -10.00000
v -8.00000 44.00000 10.00000
v -8.00000 44.00000 -10.00000
v -8.00000 41.00000 -10.00000
v -8.00000 41.00000 10.00000
v -9.00000 50.00000 -9.00000
v -9.00000 50.00000 9.00000
v 9.00000 50.00000 9.00000
v 9.00000 50.00000 -9.00000
v -8.00000 29.00000 -5.00000
v 8.00000 29.00000 -5.00000
v -8.00000 29.00000 4.00000
v 8.00000 29.00000 4.00000
v -8.00000 29.00000 -2.00000
v -8.00000 29.00000 2.00000
v 8.00000 29.00000 2.00000
v 8.00000 29.00000 -2.00000
v -8.00000 29.00000 -4.00000
v 8.00000 29.00000 -4.00000
v -8.00000 29.00000 -3.00000
v 8.00000 29.00000 -3.00000
v -8.00000 29.00000 3.00000
v 8.00000 29.00000 3.00000
v -8.00000 49.00000 9.00000
v -8.00000 49.00000 -9.00000
v 8.00000 49.00000 -9.00000
v 8.00000 49.00000 9.00000
v -7.00000 50.00000 8.00000
v -7.00000 50.00000 -8.00000
v 7.00000 50.00000 -8.00000
v 7.00000 50.00000 8.00000
v -8.00000 28.00000 -4.00000
v 8.00000 28.00000 -4.00000
v -8.00000 28.00000 4.00000
v 8.00000 28.00000 4.00000
v -8.00000 28.00000 2.00000
v -8.00000 28.00000 -2.00000
v 8.00000 28.00000 -2.00000
v 8.00000 28.00000 2.00000
v -8.00000 28.00000 -3.00000
v 8.00000 28.00000 -3.00000
v -8.00000 28.00000 3.00000
v 8.00000 28.00000 3.00000

vt 0.00781 0.17188
vt 0.00781 0.00781
vt 0.16406 0.00781
vt 0.16406 0.17188
vt 0.17969 0.17188
vt 0.17969 0.00781
vt 0.18750 0.00781
vt 0.18750 0.17188
vt 0.20313 0.17188
vt 0.20313 0.00781
vt 0.21094 0.00781
vt 0.21094 0.17188
vt 0.22656 0.17188
vt 0.22656 0.00781
vt 0.23438 0.00781
vt 0.23438 0.17188
vt 0.25000 0.17188
vt 0.25000 0.00781
vt 0.25781 0.00781
vt 0.25781 0.17188
vt 0.27344 0.17188
vt 0.27344 0.00781
vt 0.28125 0.00781
vt 0.28125 0.17188
vt 0.29688 0.17188
vt 0.29688 0.00781
vt 0.30469 0.00781
vt 0.30469 0.17188
vt 0.32031 0.17188
vt 0.32031 0.00781
vt 0.32813 0.00781
vt 0.32813 0.17188
vt 0.34375 0.17188
vt 0.34375 0.00781
vt 0.35156 0.00781
vt 0.35156 0.17188
vt 0.36719 0.16406
vt 0.36719 0.00781
vt 0.52344 0.00781
vt 0.52344 0.16406
vt 0.53906 0.16406
vt 0.53906 0.00781
vt 0.66406 0.00781
vt 0.66406 0.16406
vt 0.67969 0.16406
vt 0.67969 0.00781
vt 0.80469 0.00781
vt 0.80469 0.16406
vt 0.82031 0.16406
vt 0.82031 0.00781
vt 0.82813 0.00781
vt 0.82813 0.16406
vt 0.84375 0.16406
vt 0.84375 0.00781
vt 0.85156 0.00781
vt 0.85156 0.16406
vt 0.86719 0.14844
vt 0.86719 0.00781
vt 0.97656 0.00781
vt 0.97656 0.14844
vt 0.00781 0.32813
vt 0.00781 0.18750
vt 0.02344 0.18750
vt 0.02344 0.32813
vt 0.03906 0.32813
vt 0.03906 0.18750
vt 0.05469 0.18750
vt 0.05469 0.32813
vt 0.07031 0.32813
vt 0.07031 0.18750
vt 0.07813 0.18750
vt 0.07813 0.32813
vt 0.09375 0.32813
vt 0.09375 0.18750
vt 0.10156 0.18750
vt 0.10156 0.32813
vt 0.11719 0.31250
vt 0.11719 0.18750
vt 0.21094 0.18750
vt 0.21094 0.31250
vt 0.22656 0.31250
vt 0.22656 0.18750
vt 0.23438 0.18750
vt 0.23438 0.31250
vt 0.25000 0.31250
vt 0.25000 0.18750
vt 0.25781 0.18750
vt 0.25781 0.31250
vt 0.27344 0.25781
vt 0.27344 0.18750
vt 0.42969 0.18750
vt 0.42969 0.25781
vt 0.44531 0.25781
vt 0.44531 0.18750
vt 0.60156 0.18750
vt 0.60156 0.25781
vt 0.61719 0.25000
vt 0.61719 0.18750
vt 0.67188 0.18750
vt 0.67188 0.25000
vt 0.68750 0.25000
vt 0.68750 0.18750
vt 0.74219 0.18750
vt 0.74219 0.25000
vt 0.75781 0.25000
vt 0.75781 0.18750
vt 0.78906 0.18750
vt 0.78906 0.25000
vt 0.80469 0.25000
vt 0.80469 0.18750
vt 0.83594 0.18750
vt 0.83594 0.25000
vt 0.85156 0.25000
vt 0.85156 0.18750
vt 0.88281 0.18750
vt 0.88281 0.25000
vt 0.89844 0.25000
vt 0.89844 0.18750
vt 0.92969 0.18750
vt 0.92969 0.25000
vt 0.94531 0.25000
vt 0.94531 0.18750
vt 0.95313 0.18750
vt 0.95313 0.25000
vt 0.96875 0.25000
vt 0.96875 0.18750
vt 0.97656 0.18750
vt 0.97656 0.25000
vt 0.00781 0.40625
vt 0.00781 0.34375
vt 0.01563 0.34375
vt 0.01563 0.40625
vt 0.03125 0.40625
vt 0.03125 0.34375
vt 0.03906 0.34375
vt 0.03906 0.40625
vt 0.05469 0.40625
vt 0.05469 0.34375
vt 0.06250 0.34375
vt 0.06250 0.40625
vt 0.07813 0.40625
vt 0.07813 0.34375
vt 0.08594 0.34375
vt 0.08594 0.40625
vt 0.10156 0.40625
vt 0.10156 0.34375
vt 0.10938 0.34375
vt 0.10938 0.40625
vt 0.12500 0.40625
vt 0.12500 0.34375
vt 0.13281 0.34375
vt 0.13281 0.40625
vt 0.14844 0.40625
vt 0.14844 0.34375
vt 0.15625 0.34375
vt 0.15625 0.40625
vt 0.17188 0.40625
vt 0.17188 0.34375
vt 0.17969 0.34375
vt 0.17969 0.40625
vt 0.19531 0.40625
vt 0.19531 0.34375
vt 0.20313 0.34375
vt 0.20313 0.40625
vt 0.21875 0.40625
vt 0.21875 0.34375
vt 0.22656 0.34375
vt 0.22656 0.40625
vt 0.24219 0.40625
vt 0.24219 0.34375
vt 0.25000 0.34375
vt 0.25000 0.40625
vt 0.26563 0.40625
vt 0.26563 0.34375
vt 0.27344 0.34375
vt 0.27344 0.40625
vt 0.28906 0.40625
vt 0.28906 0.34375
vt 0.29688 0.34375
vt 0.29688 0.40625
vt 0.31250 0.40625
vt 0.31250 0.34375
vt 0.32031 0.34375
vt 0.32031 0.40625
vt 0.33594 0.40625
vt 0.33594 0.34375
vt 0.34375 0.34375
vt 0.34375 0.40625
vt 0.35938 0.40625
vt 0.35938 0.34375
vt 0.36719 0.34375
vt 0.36719 0.40625
vt 0.38281 0.39844
vt 0.38281 0.34375
vt 0.50781 0.34375
vt 0.50781 0.39844
vt 0.52344 0.39844
vt 0.52344 0.34375
vt 0.64844 0.34375
vt 0.64844 0.39844
vt 0.66406 0.39844
vt 0.66406 0.34375
vt 0.69531 0.34375
vt 0.69531 0.39844
vt 0.71094 0.39844
vt 0.71094 0.34375
vt 0.74219 0.34375
vt 0.74219 0.39844
vt 0.75781 0.39844
vt 0.75781 0.34375
vt 0.78906 0.34375
vt 0.78906 0.39844
vt 0.80469 0.39844
vt 0.80469 0.34375
vt 0.83594 0.34375
vt 0.83594 0.39844
vt 0.85156 0.39844
vt 0.85156 0.34375
vt 0.85938 0.34375
vt 0.85938 0.39844
vt 0.87500 0.39844
vt 0.87500 0.34375
vt 0.88281 0.34375
vt 0.88281 0.39844
vt 0.89844 0.39844
vt 0.89844 0.34375
vt 0.90625 0.34375
vt 0.90625 0.39844
vt 0.92188 0.39844
vt 0.92188 0.34375
vt 0.92969 0.34375
vt 0.92969 0.39844
vt 0.94531 0.39844
vt 0.94531 0.34375
vt 0.95313 0.34375
vt 0.95313 0.39844
vt 0.96875 0.39844
vt 0.96875 0.34375
vt 0.97656 0.34375
vt 0.97656 0.39844
vt 0.00781 0.47656
vt 0.00781 0.42188
vt 0.01563 0.42188
vt 0.01563 0.47656
vt 0.03125 0.47656
vt 0.03125 0.42188
vt 0.03906 0.42188
vt 0.03906 0.47656
vt 0.05469 0.46875
vt 0.05469 0.42188
vt 0.21094 0.42188
vt 0.21094 0.46875
vt 0.22656 0.46875
vt 0.22656 0.42188
vt 0.36719 0.42188
vt 0.36719 0.46875
vt 0.38281 0.46875
vt 0.38281 0.42188
vt 0.52344 0.42188
vt 0.52344 0.46875
vt 0.53906 0.46875
vt 0.53906 0.42188
vt 0.66406 0.42188
vt 0.66406 0.46875
vt 0.67969 0.46875
vt 0.67969 0.42188
vt 0.80469 0.42188
vt 0.80469 0.46875
vt 0.82031 0.46875
vt 0.82031 0.42188
vt 0.94531 0.42188
vt 0.94531 0.46875
vt 0.00781 0.53906
vt 0.00781 0.49219
vt 0.11719 0.49219
vt 0.11719 0.53906
vt 0.13281 0.53906
vt 0.13281 0.49219
vt 0.24219 0.49219
vt 0.24219 0.53906
vt 0.25781 0.53906
vt 0.25781 0.49219
vt 0.32031 0.49219
vt 0.32031 0.53906
vt 0.33594 0.53906
vt 0.33594 0.49219
vt 0.39844 0.49219
vt 0.39844 0.53906
vt 0.96094 0.46875
vt 0.96094 0.42188
vt 0.96875 0.42188
vt 0.96875 0.46875
vt 0.98438 0.46875
vt 0.98438 0.42188
vt 0.99219 0.42188
vt 0.99219 0.46875
vt 0.41406 0.53906
vt 0.41406 0.49219
vt 0.42188 0.49219
vt 0.42188 0.53906
vt 0.43750 0.53906
vt 0.43750 0.49219
vt 0.44531 0.49219
vt 0.44531 0.53906
vt 0.27344 0.31250
vt 0.27344 0.27344
vt 0.42969 0.27344
vt 0.42969 0.31250
vt 0.44531 0.31250
vt 0.44531 0.27344
vt 0.57031 0.27344
vt 0.57031 0.31250
vt 0.58594 0.31250
vt 0.58594 0.27344
vt 0.71094 0.27344
vt 0.71094 0.31250
vt 0.72656 0.31250
vt 0.72656 0.27344
vt 0.85156 0.27344
vt 0.85156 0.31250
vt 0.86719 0.31250
vt 0.86719 0.27344
vt 0.96094 0.27344
vt 0.96094 0.31250
vt 0.46094 0.53125
vt 0.46094 0.49219
vt 0.55469 0.49219
vt 0.55469 0.53125
vt 0.57031 0.52344
vt 0.57031 0.49219
vt 0.69531 0.49219
vt 0.69531 0.52344
vt 0.71094 0.52344
vt 0.71094 0.49219
vt 0.83594 0.49219
vt 0.83594 0.52344
vt 0.85156 0.52344
vt 0.85156 0.49219
vt 0.91406 0.49219
vt 0.91406 0.52344
vt 0.92969 0.52344
vt 0.92969 0.49219
vt 0.97656 0.49219
vt 0.97656 0.52344
vt 0.00781 0.58594
vt 0.00781 0.55469
vt 0.03906 0.55469
vt 0.03906 0.58594
vt 0.05469 0.58594
vt 0.05469 0.55469
vt 0.08594 0.55469
vt 0.08594 0.58594
vt 0.10156 0.58594
vt 0.10156 0.55469
vt 0.13281 0.55469
vt 0.13281 0.58594
vt 0.14844 0.58594
vt 0.14844 0.55469
vt 0.17969 0.55469
vt 0.17969 0.58594
vt 0.97656 0.30469
vt 0.97656 0.27344
vt 0.99219 0.27344
vt 0.99219 0.30469
vt 0.19531 0.58594
vt 0.19531 0.55469
vt 0.20313 0.55469
vt 0.20313 0.58594
vt 0.21875 0.58594
vt 0.21875 0.55469
vt 0.22656 0.55469
vt 0.22656 0.58594
vt 0.24219 0.58594
vt 0.24219 0.55469
vt 0.25000 0.55469
vt 0.25000 0.58594
vt 0.26563 0.57813
vt 0.26563 0.55469
vt 0.33594 0.55469
vt 0.33594 0.57813
vt 0.35156 0.57813
vt 0.35156 0.55469
vt 0.42188 0.55469
vt 0.42188 0.57813
vt 0.43750 0.57813
vt 0.43750 0.55469
vt 0.50781 0.55469
vt 0.50781 0.57813
vt 0.52344 0.57813
vt 0.52344 0.55469
vt 0.59375 0.55469
vt 0.59375 0.57813
vt 0.60938 0.57813
vt 0.60938 0.55469
vt 0.67188 0.55469
vt 0.67188 0.57813
vt 0.68750 0.57813
vt 0.68750 0.55469
vt 0.75000 0.55469
vt 0.75000 0.57813
vt 0.76563 0.57813
vt 0.76563 0.55469
vt 0.82813 0.55469
vt 0.82813 0.57813
vt 0.84375 0.57813
vt 0.84375 0.55469
vt 0.90625 0.55469
vt 0.90625 0.57813
vt 0.92188 0.57813
vt 0.92188 0.55469
vt 0.95313 0.55469
vt 0.95313 0.57813
vt 0.96875 0.57813
vt 0.96875 0.55469
vt 0.98438 0.55469
vt 0.98438 0.57813
vt 0.00781 0.62500
vt 0.00781 0.60156
vt 0.02344 0.60156
vt 0.02344 0.62500
vt 0.03906 0.62500
vt 0.03906 0.60156
vt 0.04688 0.60156
vt 0.04688 0.62500
vt 0.06250 0.62500
vt 0.06250 0.60156
vt 0.07031 0.60156
vt 0.07031 0.62500
vt 0.08594 0.62500
vt 0.08594 0.60156
vt 0.09375 0.60156
vt 0.09375 0.62500
vt 0.10938 0.62500
vt 0.10938 0.60156
vt 0.11719 0.60156
vt 0.11719 0.62500
vt 0.13281 0.62500
vt 0.13281 0.60156
vt 0.14063 0.60156
vt 0.14063 0.62500
vt 0.15625 0.62500
vt 0.15625 0.60156
vt 0.16406 0.60156
vt 0.16406 0.62500
vt 0.17969 0.61719
vt 0.17969 0.60156
vt 0.21094 0.60156
vt 0.21094 0.61719
vt 0.22656 0.61719
vt 0.22656 0.60156
vt 0.24219 0.60156
vt 0.24219 0.61719
vt 0.25781 0.61719
vt 0.25781 0.60156
vt 0.27344 0.60156
vt 0.27344 0.61719
vt 0.28906 0.61719
vt 0.28906 0.60156
vt 0.29688 0.60156
vt 0.29688 0.61719
vt 0.31250 0.61719
vt 0.31250 0.60156
vt 0.32031 0.60156
vt 0.32031 0.61719
vt 0.33594 0.61719
vt 0.33594 0.60156
vt 0.34375 0.60156
vt 0.34375 0.61719
vt 0.35938 0.60938
vt 0.35938 0.60156
vt 0.51563 0.60156
vt 0.51563 0.60938
vt 0.53125 0.60938
vt 0.53125 0.60156
vt 0.68750 0.60156
vt 0.68750 0.60938
vt 0.70313 0.60938
vt 0.70313 0.60156
vt 0.84375 0.60156
vt 0.84375 0.60938
vt 0.00781 0.64844
vt 0.00781 0.64063
vt 0.14844 0.64063
vt 0.14844 0.64844
vt 0.16406 0.64844
vt 0.16406 0.64063
vt 0.30469 0.64063
vt 0.30469 0.64844
vt 0.32031 0.64844
vt 0.32031 0.64063
vt 0.46094 0.64063
vt 0.46094 0.64844
vt 0.85938 0.60938
vt 0.85938 0.60156
vt 0.98438 0.60156
vt 0.98438 0.60938
vt 0.47656 0.64844
vt 0.47656 0.64063
vt 0.60156 0.64063
vt 0.60156 0.64844
vt 0.61719 0.64844
vt 0.61719 0.64063
vt 0.74219 0.64063
vt 0.74219 0.64844
vt 0.75781 0.64844
vt 0.75781 0.64063
vt 0.88281 0.64063
vt 0.88281 0.64844
vt 0.00781 0.67188
vt 0.00781 0.66406
vt 0.13281 0.66406
vt 0.13281 0.67188
vt 0.14844 0.67188
vt 0.14844 0.66406
vt 0.27344 0.66406
vt 0.27344 0.67188
vt 0.28906 0.67188
vt 0.28906 0.66406
vt 0.41406 0.66406
vt 0.41406 0.67188
vt 0.42969 0.67188
vt 0.42969 0.66406
vt 0.55469 0.66406
vt 0.55469 0.67188
vt 0.57031 0.67188
vt 0.57031 0.66406
vt 0.67969 0.66406
vt 0.67969 0.67188
vt 0.69531 0.67188
vt 0.69531 0.66406
vt 0.80469 0.66406
vt 0.80469 0.67188
vt 0.82031 0.67188
vt 0.82031 0.66406
vt 0.92969 0.66406
vt 0.92969 0.67188
vt 0.00781 0.69531
vt 0.00781 0.68750
vt 0.11719 0.68750
vt 0.11719 0.69531
vt 0.89844 0.64844
vt 0.89844 0.64063
vt 0.97656 0.64063
vt 0.97656 0.64844
vt 0.13281 0.69531
vt 0.13281 0.68750
vt 0.19531 0.68750
vt 0.19531 0.69531
vt 0.21094 0.69531
vt 0.21094 0.68750
vt 0.27344 0.68750
vt 0.27344 0.69531
vt 0.28906 0.69531
vt 0.28906 0.68750
vt 0.35156 0.68750
vt 0.35156 0.69531
vt 0.36719 0.69531
vt 0.36719 0.68750
vt 0.42969 0.68750
vt 0.42969 0.69531
vt 0.44531 0.69531
vt 0.44531 0.68750
vt 0.50000 0.68750
vt 0.50000 0.69531
vt 0.51563 0.69531
vt 0.51563 0.68750
vt 0.57031 0.68750
vt 0.57031 0.69531
vt 0.58594 0.69531
vt 0.58594 0.68750
vt 0.64063 0.68750
vt 0.64063 0.69531
vt 0.65625 0.69531
vt 0.65625 0.68750
vt 0.71094 0.68750
vt 0.71094 0.69531
vt 0.94531 0.67188
vt 0.94531 0.66406
vt 0.99219 0.66406
vt 0.99219 0.67188
vt 0.72656 0.69531
vt 0.72656 0.68750
vt 0.77344 0.68750
vt 0.77344 0.69531
vt 0.78906 0.69531
vt 0.78906 0.68750
vt 0.83594 0.68750
vt 0.83594 0.69531
vt 0.85156 0.69531
vt 0.85156 0.68750
vt 0.89844 0.68750
vt 0.89844 0.69531
vt 0.91406 0.69531
vt 0.91406 0.68750
vt 0.96094 0.68750
vt 0.96094 0.69531
vt 0.00781 0.71875
vt 0.00781 0.71094
vt 0.05469 0.71094
vt 0.05469 0.71875
vt 0.07031 0.71875
vt 0.07031 0.71094
vt 0.11719 0.71094
vt 0.11719 0.71875
vt 0.13281 0.71875
vt 0.13281 0.71094
vt 0.17969 0.71094
vt 0.17969 0.71875
vt 0.19531 0.71875
vt 0.19531 0.71094
vt 0.24219 0.71094
vt 0.24219 0.71875
vt 0.25781 0.71875
vt 0.25781 0.71094
vt 0.30469 0.71094
vt 0.30469 0.71875
vt 0.32031 0.71875
vt 0.32031 0.71094
vt 0.36719 0.71094
vt 0.36719 0.71875
vt 0.38281 0.71875
vt 0.38281 0.71094
vt 0.42969 0.71094
vt 0.42969 0.71875
vt 0.44531 0.71875
vt 0.44531 0.71094
vt 0.49219 0.71094
vt 0.49219 0.71875
vt 0.50781 0.71875
vt 0.50781 0.71094
vt 0.55469 0.71094
vt 0.55469 0.71875
vt 0.57031 0.71875
vt 0.57031 0.71094
vt 0.60938 0.71094
vt 0.60938 0.71875
vt 0.62500 0.71875
vt 0.62500 0.71094
vt 0.66406 0.71094
vt 0.66406 0.71875
vt 0.67969 0.71875
vt 0.67969 0.71094
vt 0.71875 0.71094
vt 0.71875 0.71875
vt 0.73438 0.71875
vt 0.73438 0.71094
vt 0.77344 0.71094
vt 0.77344 0.71875
vt 0.78906 0.71875
vt 0.78906 0.71094
vt 0.82813 0.71094
vt 0.82813 0.71875
vt 0.84375 0.71875
vt 0.84375 0.71094
vt 0.88281 0.71094
vt 0.88281 0.71875
vt 0.89844 0.71875
vt 0.89844 0.71094
vt 0.93750 0.71094
vt 0.93750 0.71875
vt 0.95313 0.71875
vt 0.95313 0.71094
vt 0.99219 0.71094
vt 0.99219 0.71875
vt 0.00781 0.74219
vt 0.00781 0.73438
vt 0.04688 0.73438
vt 0.04688 0.74219
vt 0.06250 0.74219
vt 0.06250 0.73438
vt 0.09375 0.73438
vt 0.09375 0.74219
vt 0.10938 0.74219
vt 0.10938 0.73438
vt 0.14063 0.73438
vt 0.14063 0.74219
vt 0.15625 0.74219
vt 0.15625 0.73438
vt 0.18750 0.73438
vt 0.18750 0.74219
vt 0.20313 0.74219
vt 0.20313 0.73438
vt 0.23438 0.73438
vt 0.23438 0.74219
vt 0.25000 0.74219
vt 0.25000 0.73438
vt 0.28125 0.73438
vt 0.28125 0.74219
vt 0.29688 0.74219
vt 0.29688 0.73438
vt 0.32813 0.73438
vt 0.32813 0.74219
vt 0.34375 0.74219
vt 0.34375 0.73438
vt 0.37500 0.73438
vt 0.37500 0.74219
vt 0.39063 0.74219
vt 0.39063 0.73438
vt 0.42188 0.73438
vt 0.42188 0.74219
vt 0.43750 0.74219
vt 0.43750 0.73438
vt 0.46875 0.73438
vt 0.46875 0.74219
vt 0.48438 0.74219
vt 0.48438 0.73438
vt 0.51563 0.73438
vt 0.51563 0.74219
vt 0.97656 0.69531
vt 0.97656 0.68750
vt 0.99219 0.68750
vt 0.99219 0.69531
vt 0.53125 0.74219
vt 0.53125 0.73438
vt 0.54688 0.73438
vt 0.54688 0.74219
vt 0.56250 0.74219
vt 0.56250 0.73438
vt 0.57813 0.73438
vt 0.57813 0.74219
vt 0.59375 0.74219
vt 0.59375 0.73438
vt 0.60938 0.73438
vt 0.60938 0.74219
vt 0.62500 0.74219
vt 0.62500 0.73438
vt 0.64063 0.73438
vt 0.64063 0.74219
vt 0.65625 0.74219
vt 0.65625 0.73438
vt 0.67188 0.73438
vt 0.67188 0.74219
vt 0.68750 0.74219
vt 0.68750 0.73438
vt 0.70313 0.73438
vt 0.70313 0.74219
vt 0.71875 0.74219
vt 0.71875 0.73438
vt 0.73438 0.73438
vt 0.73438 0.74219
vt 0.75000 0.74219
vt 0.75000 0.73438
vt 0.76563 0.73438
vt 0.76563 0.74219
vt 0.78125 0.74219
vt 0.78125 0.73438
vt 0.79688 0.73438
vt 0.79688 0.74219
vt 0.81250 0.74219
vt 0.81250 0.73438
vt 0.82813 0.73438
vt 0.82813 0.74219
vt 0.84375 0.74219
vt 0.84375 0.73438
vt 0.85938 0.73438
vt 0.85938 0.74219
vt 0.87500 0.74219
vt 0.87500 0.73438
vt 0.89063 0.73438
vt 0.89063 0.74219
vt 0.90625 0.74219
vt 0.90625 0.73438
vt 0.91406 0.73438
vt 0.91406 0.74219
vt 0.92969 0.74219
vt 0.92969 0.73438
vt 0.93750 0.73438
vt 0.93750 0.74219
vt 0.95313 0.74219
vt 0.95313 0.73438
vt 0.96094 0.73438
vt 0.96094 0.74219
vt 0.97656 0.74219
vt 0.97656 0.73438
vt 0.98438 0.73438
vt 0.98438 0.74219
vt 0.00781 0.76563
vt 0.00781 0.75781
vt 0.01563 0.75781
vt 0.01563 0.76563
vt 0.03125 0.76563
vt 0.03125 0.75781
vt 0.03906 0.75781
vt 0.03906 0.76563
vt 0.05469 0.76563
vt 0.05469 0.75781
vt 0.06250 0.75781
vt 0.06250 0.76563
vt 0.07813 0.76563
vt 0.07813 0.75781
vt 0.08594 0.75781
vt 0.08594 0.76563
vt 0.10156 0.76563
vt 0.10156 0.75781
vt 0.10938 0.75781
vt 0.10938 0.76563
vt 0.12500 0.76563
vt 0.12500 0.75781
vt 0.13281 0.75781
vt 0.13281 0.76563
vt 0.14844 0.76563
vt 0.14844 0.75781
vt 0.15625 0.75781
vt 0.15625 0.76563
vt 0.17188 0.76563
vt 0.17188 0.75781
vt 0.17969 0.75781
vt 0.17969 0.76563
vt 0.19531 0.76563
vt 0.19531 0.75781
vt 0.20313 0.75781
vt 0.20313 0.76563
vt 0.21875 0.76563
vt 0.21875 0.75781
vt 0.22656 0.75781
vt 0.22656 0.76563
vt 0.24219 0.76563
vt 0.24219 0.75781
vt 0.25000 0.75781
vt 0.25000 0.76563
vt 0.26563 0.76563
vt 0.26563 0.75781
vt 0.27344 0.75781
vt 0.27344 0.76563
vt 0.28906 0.76563
vt 0.28906 0.75781
vt 0.29688 0.75781
vt 0.29688 0.76563
vt 0.31250 0.76563
vt 0.31250 0.75781
vt 0.32031 0.75781
vt 0.32031 0.76563
vt 0.33594 0.76563
vt 0.33594 0.75781
vt 0.34375 0.75781
vt 0.34375 0.76563
vt 0.35938 0.76563
vt 0.35938 0.75781
vt 0.36719 0.75781
vt 0.36719 0.76563
vt 0.38281 0.76563
vt 0.38281 0.75781
vt 0.39063 0.75781
vt 0.39063 0.76563
vt 0.40625 0.76563
vt 0.40625 0.75781
vt 0.41406 0.75781
vt 0.41406 0.76563
vt 0.42969 0.76563
vt 0.42969 0.75781
vt 0.43750 0.75781
vt 0.43750 0.76563
vt 0.45313 0.76563
vt 0.45313 0.75781
vt 0.46094 0.75781
vt 0.46094 0.76563
vt 0.47656 0.76563
vt 0.47656 0.75781
vt 0.48438 0.75781
vt 0.48438 0.76563
vt 0.50000 0.76563
vt 0.50000 0.75781
vt 0.50781 0.75781
vt 0.50781 0.76563
vt 0.52344 0.76563
vt 0.52344 0.75781
vt 0.53125 0.75781
vt 0.53125 0.76563
vt 0.54688 0.76563
vt 0.54688 0.75781
vt 0.55469 0.75781
vt 0.55469 0.76563
vt 0.57031 0.76563
vt 0.57031 0.75781
vt 0.57813 0.75781
vt 0.57813 0.76563
vt 0.59375 0.76563
vt 0.59375 0.75781
vt 0.60156 0.75781
vt 0.60156 0.76563
vt 0.61719 0.76563
vt 0.61719 0.75781
vt 0.62500 0.75781
vt 0.62500 0.76563
vt 0.64063 0.76563
vt 0.64063 0.75781
vt 0.64844 0.75781
vt 0.64844 0.76563
vt 0.66406 0.76563
vt 0.66406 0.75781
vt 0.67188 0.75781
vt 0.67188 0.76563
vt 0.68750 0.76563
vt 0.68750 0.75781
vt 0.69531 0.75781
vt 0.69531 0.76563
vt 0.71094 0.76563
vt 0.71094 0.75781
vt 0.71875 0.75781
vt 0.71875 0.76563
vt 0.73438 0.76563
vt 0.73438 0.75781
vt 0.74219 0.75781
vt 0.74219 0.76563
vt 0.75781 0.76563
vt 0.75781 0.75781
vt 0.76563 0.75781
vt 0.76563 0.76563
vt 0.78125 0.76563
vt 0.78125 0.75781
vt 0.78906 0.75781
vt 0.78906 0.76563
vt 0.80469 0.76563
vt 0.80469 0.75781
vt 0.81250 0.75781
vt 0.81250 0.76563
vt 0.82813 0.76563
vt 0.82813 0.75781
vt 0.83594 0.75781
vt 0.83594 0.76563
vt 0.85156 0.76563
vt 0.85156 0.75781
vt 0.85938 0.75781
vt 0.85938 0.76563
vt 0.87500 0.76563
vt 0.87500 0.75781
vt 0.88281 0.75781
vt 0.88281 0.76563
vt 0.89844 0.76563
vt 0.89844 0.75781
vt 0.90625 0.75781
vt 0.90625 0.76563
vt 0.92188 0.76563
vt 0.92188 0.75781
vt 0.92969 0.75781
vt 0.92969 0.76563
vt 0.94531 0.76563
vt 0.94531 0.75781
vt 0.95313 0.75781
vt 0.95313 0.76563
vt 0.96875 0.76563
vt 0.96875 0.75781
vt 0.97656 0.75781
vt 0.97656 0.76563
vt 0.00781 0.78906
vt 0.00781 0.78125
vt 0.01563 0.78125
vt 0.01563 0.78906
vt 0.03125 0.78906
vt 0.03125 0.78125
vt 0.03906 0.78125
vt 0.03906 0.78906
vt 0.05469 0.78906
vt 0.05469 0.78125
vt 0.06250 0.78125
vt 0.06250 0.78906
vt 0.07813 0.78906
vt 0.07813 0.78125
vt 0.08594 0.78125
vt 0.08594 0.78906
vt 0.10156 0.78906
vt 0.10156 0.78125
vt 0.10938 0.78125
vt 0.10938 0.78906
vt 0.12500 0.78906
vt 0.12500 0.78125
vt 0.13281 0.78125
vt 0.13281 0.78906
vt 0.14844 0.78906
vt 0.14844 0.78125
vt 0.15625 0.78125
vt 0.15625 0.78906
vt 0.17188 0.78906
vt 0.17188 0.78125
vt 0.17969 0.78125
vt 0.17969 0.78906
vt 0.19531 0.78906
vt 0.19531 0.78125
vt 0.20313 0.78125
vt 0.20313 0.78906
vt 0.21875 0.78906
vt 0.21875 0.78125
vt 0.22656 0.78125
vt 0.22656 0.78906
vt 0.24219 0.78906
vt 0.24219 0.78125
vt 0.25000 0.78125
vt 0.25000 0.78906
vt 0.26563 0.78906
vt 0.26563 0.78125
vt 0.27344 0.78125
vt 0.27344 0.78906
vt 0.28906 0.78906
vt 0.28906 0.78125
vt 0.29688 0.78125
vt 0.29688 0.78906
vt 0.31250 0.78906
vt 0.31250 0.78125
vt 0.32031 0.78125
vt 0.32031 0.78906
vt 0.33594 0.78906
vt 0.33594 0.78125
vt 0.34375 0.78125
vt 0.34375 0.78906

g head_human_box
usemtl head_human_Material
f 1/41/2 2/42/2 3/43/2 4/44/2
f 5/21/2 6/22/2 7/23/2 8/24/2
f 9/29/2 10/30/2 11/31/2 12/32/2
f 13/193/2 14/194/2 15/195/2 16/196/2
f 17/273/2 18/274/2 19/275/2 20/276/2
f 21/321/2 22/322/2 23/323/2 24/324/2
f 25/285/2 26/286/2 27/287/2 28/288/2
f 29/97/2 30/98/2 31/99/2 32/100/2
f 33/113/2 34/114/2 35/115/2 36/116/2
f 37/213/2 38/214/2 39/215/2 40/216/2
f 41/301/2 42/302/2 43/303/2 44/304/2
f 45/161/2 46/162/2 47/163/2 48/164/2
f 49/165/2 50/166/2 51/167/2 52/168/2
f 53/145/2 54/146/2 55/147/2 56/148/2
f 57/149/2 58/150/2 59/151/2 60/152/2
f 61/233/2 62/234/2 63/235/2 64/236/2
f 65/237/2 66/238/2 67/239/2 68/240/2
f 69/329/2 70/330/2 71/331/2 72/332/2
f 73/441/2 74/442/2 75/443/2 76/444/2
f 77/437/2 78/438/2 79/439/2 80/440/2
f 81/433/2 82/434/2 83/435/2 84/436/2
f 85/449/2 86/450/2 87/451/2 88/452/2
f 11/497/2 89/498/2 90/499/2 6/500/2
f 91/525/2 92/526/2 93/527/2 94/528/2
f 95/617/2 96/618/2 16/619/2 97/620/2
f 98/565/2 99/566/2 97/567/2 27/568/2
f 100/561/2 101/562/2 28/563/2 102/564/2
f 103/605/2 104/606/2 102/607/2 71/608/2
f 30/545/2 13/546/2 105/547/2 106/548/2
f 70/549/2 29/550/2 107/551/2 108/552/2
f 109/689/2 110/690/2 111/691/2 112/692/2
f 113/713/2 114/714/2 115/715/2 116/716/2
f 117/733/2 118/734/2 119/735/2 120/736/2
f 42/729/2 121/730/2 122/731/2 123/732/2
f 124/725/2 41/726/2 125/727/2 126/728/2
f 127/777/2 128/778/2 129/779/2 130/780/2
f 131/781/2 85/782/2 132/783/2 133/784/2
f 75/785/2 134/786/2 135/787/2 136/788/2
f 137/773/2 64/774/2 138/775/2 139/776/2
f 140/761/2 141/762/2 65/763/2 142/764/2
f 143/765/2 40/766/2 144/767/2 145/768/2
f 146/769/2 147/770/2 37/771/2 148/772/2
f 149/45/1 6/46/1 11/47/1 150/48/1
f 151/17/1 152/18/1 3/19/1 153/20/1
f 154/5/1 2/6/1 155/7/1 156/8/1
f 157/325/1 158/326/1 159/327/1 160/328/1
f 161/277/1 94/278/1 91/279/1 162/280/1
f 163/197/1 164/198/1 165/199/1 166/200/1
f 167/281/1 168/282/1 169/283/1 170/284/1
f 171/101/1 172/102/1 173/103/1 174/104/1
f 45/205/1 175/206/1 176/207/1 52/208/1
f 111/109/1 177/110/1 178/111/1 110/112/1
f 53/241/1 179/242/1 180/243/1 181/244/1
f 182/225/1 183/226/1 184/227/1 60/228/1
f 138/185/1 185/186/1 186/187/1 64/188/1
f 65/133/1 187/134/1 188/135/1 141/136/1
f 144/157/1 189/158/1 190/159/1 40/160/1
f 37/153/1 191/154/1 192/155/1 147/156/1
f 193/289/1 194/290/1 195/291/1 196/292/1
f 197/333/1 198/334/1 199/335/1 200/336/1
f 131/429/1 86/430/1 201/431/1 202/432/1
f 73/425/1 74/426/1 203/427/1 204/428/1
f 205/421/1 206/422/1 79/423/1 80/424/1
f 207/453/1 208/454/1 83/455/1 209/456/1
f 19/533/1 210/534/1 211/535/1 18/536/1
f 3/505/1 212/506/1 213/507/1 2/508/1
f 214/609/1 163/610/1 215/611/1 216/612/1
f 168/569/1 214/570/1 217/571/1 218/572/1
f 219/573/1 167/574/1 220/575/1 221/576/1
f 198/613/1 219/614/1 222/615/1 223/616/1
f 224/557/1 225/558/1 166/559/1 173/560/1
f 226/553/1 227/554/1 174/555/1 199/556/1
f 228/669/1 36/670/1 33/671/1 229/672/1
f 230/709/1 231/710/1 232/711/1 233/712/1
f 234/745/1 235/746/1 236/747/1 237/748/1
f 238/741/1 239/742/1 240/743/1 195/744/1
f 241/737/1 242/738/1 196/739/1 243/740/1
f 244/933/1 229/934/1 245/935/1 246/936/1
f 247/929/1 48/930/1 45/931/1 248/932/1
f 249/925/1 52/926/1 49/927/1 250/928/1
f 251/945/1 56/946/1 53/947/1 252/948/1
f 253/941/1 60/942/1 57/943/1 254/944/1
f 255/937/1 256/938/1 257/939/1 206/940/1
f 258/921/1 259/922/1 209/923/1 84/924/1
f 150/37/3 11/38/3 2/39/3 1/40/3
f 72/33/3 15/34/3 6/35/3 5/36/3
f 153/9/3 3/10/3 164/11/3 197/12/3
f 260/93/3 7/94/3 152/95/3 261/96/3
f 8/249/3 262/250/3 263/251/3 151/252/3
f 20/253/3 19/254/3 94/255/3 161/256/3
f 160/317/3 159/318/3 22/319/3 21/320/3
f 56/117/3 55/118/3 185/119/3 138/120/3
f 60/201/3 184/202/3 66/203/3 65/204/3
f 44/297/3 43/298/3 26/299/3 25/300/3
f 36/129/3 35/130/3 46/131/3 45/132/3
f 48/125/3 47/126/3 54/127/3 53/128/3
f 52/245/3 176/246/3 183/247/3 182/248/3
f 64/121/3 186/122/3 189/123/3 144/124/3
f 68/221/3 67/222/3 38/223/3 37/224/3
f 40/141/3 190/142/3 177/143/3 111/144/3
f 170/293/3 169/294/3 194/295/3 193/296/3
f 262/381/3 264/382/3 74/383/3 73/384/3
f 80/377/3 79/378/3 265/379/3 263/380/3
f 264/405/3 260/406/3 86/407/3 131/408/3
f 84/401/3 83/402/3 261/403/3 265/404/3
f 76/413/3 75/414/3 206/415/3 205/416/3
f 88/445/3 87/446/3 208/447/3 207/448/3
f 6/469/3 90/470/3 212/471/3 3/472/3
f 18/485/3 211/486/3 92/487/3 91/488/3
f 254/697/3 57/698/3 141/699/3 140/700/3
f 136/757/3 135/758/3 256/759/3 255/760/3
f 116/905/3 115/906/3 96/907/3 95/908/3
f 120/901/3 119/902/3 104/903/3 103/904/3
f 123/897/3 122/898/3 99/899/3 98/900/3
f 126/917/3 125/918/3 101/919/3 100/920/3
f 130/913/3 129/914/3 229/915/3 244/916/3
f 229/909/3 33/910/3 52/911/3 249/912/3
f 250/949/3 49/950/3 60/951/3 253/952/3
f 133/989/3 132/990/3 134/991/3 75/992/3
f 206/985/3 257/986/3 259/987/3 258/988/3
f 142/981/3 65/982/3 147/983/3 146/984/3
f 148/1001/3 37/1002/3 110/1003/3 109/1004/3
f 216/997/3 215/998/3 231/999/3 230/1000/3
f 223/993/3 222/994/3 235/995/3 234/996/3
f 218/977/3 217/978/3 239/979/3 238/980/3
f 221/961/3 220/962/3 242/963/3 241/964/3
f 156/1/4 155/2/4 10/3/4 9/4/4
f 12/13/4 11/14/4 14/15/4 69/16/4
f 200/25/4 165/26/4 2/27/4 154/28/4
f 266/89/4 3/90/4 6/91/4 267/92/4
f 4/305/4 268/306/4 269/307/4 149/308/4
f 162/257/4 91/258/4 18/259/4 17/260/4
f 24/309/4 23/310/4 158/311/4 157/312/4
f 64/209/4 63/210/4 179/211/4 53/212/4
f 141/105/4 188/106/4 58/107/4 57/108/4
f 32/137/4 31/138/4 121/139/4 124/140/4
f 52/177/4 51/178/4 34/179/4 33/180/4
f 181/229/4 180/230/4 175/231/4 45/232/4
f 60/181/4 59/182/4 50/183/4 49/184/4
f 40/217/4 39/218/4 62/219/4 61/220/4
f 147/169/4 192/170/4 187/171/4 65/172/4
f 110/189/4 178/190/4 191/191/4 37/192/4
f 243/173/4 240/174/4 172/175/4 171/176/4
f 204/389/4 203/390/4 270/391/4 269/392/4
f 268/385/4 271/386/4 78/387/4 77/388/4
f 202/393/4 201/394/4 267/395/4 270/396/4
f 271/397/4 266/398/4 82/399/4 81/400/4
f 84/409/4 83/410/4 86/411/4 131/412/4
f 80/417/4 79/418/4 74/419/4 73/420/4
f 2/473/4 213/474/4 89/475/4 11/476/4
f 94/489/4 93/490/4 210/491/4 19/492/4
f 139/701/4 138/702/4 56/703/4 251/704/4
f 106/957/4 105/958/4 114/959/4 113/960/4
f 108/953/4 107/954/4 118/955/4 117/956/4
f 246/973/4 245/974/4 128/975/4 127/976/4
f 248/969/4 45/970/4 36/971/4 228/972/4
f 252/965/4 53/966/4 48/967/4 247/968/4
f 145/825/4 144/826/4 64/827/4 137/828/4
f 112/821/4 111/822/4 40/823/4 143/824/4
f 233/817/4 232/818/4 225/819/4 224/820/4
f 237/837/4 236/838/4 227/839/4 226/840/4
f 20/57/5 161/58/5 162/59/5 17/60/5
f 272/61/5 273/62/5 94/63/5 19/64/5
f 18/65/5 91/66/5 274/67/5 275/68/5
f 6/313/5 276/314/5 277/315/5 11/316/5
f 278/269/5 3/270/5 2/271/5 279/272/5
f 179/341/5 63/342/5 66/343/5 184/344/5
f 280/357/5 281/358/5 139/359/5 251/360/5
f 254/353/5 140/354/5 282/355/5 283/356/5
f 86/365/5 83/366/5 82/367/5 201/368/5
f 56/373/5 138/374/5 64/375/5 53/376/5
f 60/369/5 65/370/5 141/371/5 57/372/5
f 136/457/5 255/458/5 206/459/5 75/460/5
f 76/461/5 205/462/5 80/463/5 73/464/5
f 8/477/5 272/478/5 275/479/5 9/480/5
f 273/481/5 151/482/5 156/483/5 274/484/5
f 72/513/5 5/514/5 12/515/5 69/516/5
f 276/541/5 284/542/5 229/543/5 129/544/5
f 153/521/5 197/522/5 200/523/5 154/524/5
f 128/649/5 245/650/5 285/651/5 277/652/5
f 284/585/5 286/586/5 248/587/5 228/588/5
f 229/577/5 249/578/5 287/579/5 285/580/5
f 286/645/5 280/646/5 252/647/5 247/648/5
f 250/657/5 253/658/5 283/659/5 287/660/5
f 281/665/5 288/666/5 145/667/5 137/668/5
f 142/661/5 146/662/5 289/663/5 282/664/5
f 288/601/5 278/602/5 112/603/5 143/604/5
f 148/589/5 109/590/5 279/591/5 289/592/5
f 36/677/5 45/678/5 52/679/5 33/680/5
f 175/673/5 180/674/5 183/675/5 176/676/5
f 62/685/5 39/686/5 38/687/5 67/688/5
f 40/681/5 111/682/5 110/683/5 37/684/5
f 120/717/5 103/718/5 108/719/5 117/720/5
f 223/721/5 234/722/5 237/723/5 226/724/5
f 116/833/5 95/834/5 99/835/5 122/836/5
f 123/829/5 98/830/5 26/831/5 43/832/5
f 118/813/5 107/814/5 32/815/5 124/816/5
f 130/797/5 244/798/5 246/799/5 127/800/5
f 48/793/5 53/794/5 181/795/5 45/796/5
f 52/789/5 182/790/5 60/791/5 49/792/5
f 88/809/5 135/810/5 134/811/5 132/812/5
f 133/805/5 75/806/5 74/807/5 131/808/5
f 256/801/5 207/802/5 259/803/5 257/804/5
f 206/841/5 258/842/5 84/843/5 79/844/5
f 64/881/5 144/882/5 40/883/5 61/884/5
f 68/877/5 37/878/5 147/879/5 65/880/5
f 216/873/5 230/874/5 239/875/5 217/876/5
f 218/893/5 238/894/5 194/895/5 169/896/5
f 227/889/5 236/890/5 243/891/5 171/892/5
f 152/53/6 7/54/6 6/55/6 3/56/6
f 2/49/6 11/50/6 10/51/6 155/52/6
f 290/69/6 291/70/6 210/71/6 93/72/6
f 92/73/6 211/74/6 292/75/6 293/76/6
f 24/77/6 157/78/6 160/79/6 21/80/6
f 294/85/6 295/86/6 158/87/6 23/88/6
f 22/81/6 159/82/6 296/83/6 297/84/6
f 298/261/6 90/262/6 89/263/6 299/264/6
f 212/265/6 300/266/6 301/267/6 213/268/6
f 185/337/6 55/338/6 58/339/6 188/340/6
f 302/345/6 303/346/6 56/347/6 138/348/6
f 141/349/6 57/350/6 304/351/6 305/352/6
f 208/361/6 87/362/6 86/363/6 83/364/6
f 80/465/6 73/466/6 204/467/6 77/468/6
f 6/493/6 15/494/6 14/495/6 11/496/6
f 291/501/6 149/502/6 150/503/6 292/504/6
f 295/529/6 19/530/6 18/531/6 296/532/6
f 94/537/6 294/538/6 297/539/6 91/540/6
f 4/517/6 290/518/6 293/519/6 1/520/6
f 164/509/6 3/510/6 2/511/6 165/512/6
f 306/593/6 298/594/6 36/595/6 45/596/6
f 52/597/6 33/598/6 299/599/6 307/600/6
f 303/637/6 306/638/6 48/639/6 53/640/6
f 54/581/6 47/582/6 50/583/6 59/584/6
f 60/633/6 49/634/6 307/635/6 304/636/6
f 308/641/6 302/642/6 64/643/6 144/644/6
f 189/621/6 186/622/6 187/623/6 192/624/6
f 147/653/6 65/654/6 305/655/6 309/656/6
f 300/625/6 308/626/6 40/627/6 111/628/6
f 110/629/6 37/630/6 309/631/6 301/632/6
f 46/705/6 35/706/6 34/707/6 51/708/6
f 177/693/6 190/694/6 191/695/6 178/696/6
f 96/749/6 115/750/6 114/751/6 105/752/6
f 231/753/6 215/754/6 225/755/6 232/756/6
f 104/885/6 119/886/6 126/887/6 100/888/6
f 101/869/6 125/870/6 44/871/6 25/872/6
f 106/853/6 113/854/6 121/855/6 31/856/6
f 74/849/6 131/850/6 202/851/6 203/852/6
f 84/845/6 79/846/6 78/847/6 81/848/6
f 235/865/6 222/866/6 221/867/6 241/868/6
f 242/861/6 220/862/6 170/863/6 193/864/6
f 233/857/6 224/858/6 172/859/6 240/860/6
